<svg width="263" height="80" viewBox="0 0 263 80" fill="none" xmlns="http://www.w3.org/2000/svg">
<circle cx="39.5" cy="40.5" r="39.5" fill="white"/>
<circle cx="39" cy="40" r="33" fill="black"/>
<circle cx="39.5" cy="39.5" r="8.5" fill="white"/>
<path d="M99.808 62.448C97.0347 62.448 94.3253 62.0853 91.68 61.36C89.0347 60.6347 86.9227 59.7173 85.344 58.608L88.416 52.528C89.952 53.552 91.7867 54.384 93.92 55.024C96.096 55.6213 98.2293 55.92 100.32 55.92C105.099 55.92 107.488 54.6613 107.488 52.144C107.488 50.9493 106.869 50.1173 105.632 49.648C104.437 49.1787 102.496 48.7307 99.808 48.304C96.992 47.8773 94.688 47.3867 92.896 46.832C91.1467 46.2773 89.6107 45.3173 88.288 43.952C87.008 42.544 86.368 40.6027 86.368 38.128C86.368 34.8853 87.712 32.304 90.4 30.384C93.1307 28.4213 96.8 27.44 101.408 27.44C103.755 27.44 106.101 27.7173 108.448 28.272C110.795 28.784 112.715 29.488 114.208 30.384L111.136 36.464C108.235 34.7573 104.971 33.904 101.344 33.904C98.9973 33.904 97.2053 34.2667 95.968 34.992C94.7733 35.6747 94.176 36.592 94.176 37.744C94.176 39.024 94.816 39.9413 96.096 40.496C97.4187 41.008 99.4453 41.4987 102.176 41.968C104.907 42.3947 107.147 42.8853 108.896 43.44C110.645 43.9947 112.139 44.9333 113.376 46.256C114.656 47.5787 115.296 49.456 115.296 51.888C115.296 55.088 113.909 57.648 111.136 59.568C108.363 61.488 104.587 62.448 99.808 62.448ZM141.578 27.44C145.887 27.44 149.343 28.6987 151.946 31.216C154.548 33.7333 155.85 37.4667 155.85 42.416V62H147.85V43.44C147.85 40.4533 147.146 38.2133 145.738 36.72C144.33 35.184 142.324 34.416 139.722 34.416C136.778 34.416 134.452 35.312 132.746 37.104C131.039 38.8533 130.186 41.392 130.186 44.72V62H122.186V27.824H129.802V32.24C131.124 30.6613 132.788 29.4667 134.794 28.656C136.799 27.8453 139.06 27.44 141.578 27.44ZM165.998 27.824H173.998V62H165.998V27.824ZM170.03 22.192C168.579 22.192 167.363 21.744 166.382 20.848C165.401 19.9093 164.91 18.7573 164.91 17.392C164.91 16.0267 165.401 14.896 166.382 14C167.363 13.0613 168.579 12.592 170.03 12.592C171.481 12.592 172.697 13.04 173.678 13.936C174.659 14.7893 175.15 15.8773 175.15 17.2C175.15 18.608 174.659 19.8027 173.678 20.784C172.739 21.7227 171.523 22.192 170.03 22.192ZM203.442 27.44C206.77 27.44 209.735 28.1653 212.338 29.616C214.983 31.0667 217.053 33.1147 218.546 35.76C220.039 38.4053 220.786 41.456 220.786 44.912C220.786 48.368 220.039 51.44 218.546 54.128C217.053 56.7733 214.983 58.8213 212.338 60.272C209.735 61.7227 206.77 62.448 203.442 62.448C198.834 62.448 195.186 60.912 192.498 57.84V74.416H184.498V27.824H192.114V32.304C193.437 30.6827 195.058 29.4667 196.978 28.656C198.941 27.8453 201.095 27.44 203.442 27.44ZM202.546 55.6C205.49 55.6 207.901 54.6187 209.778 52.656C211.698 50.6933 212.658 48.112 212.658 44.912C212.658 41.712 211.698 39.1307 209.778 37.168C207.901 35.2053 205.49 34.224 202.546 34.224C200.626 34.224 198.898 34.672 197.362 35.568C195.826 36.4213 194.61 37.6587 193.714 39.28C192.818 40.9013 192.37 42.7787 192.37 44.912C192.37 47.0453 192.818 48.9227 193.714 50.544C194.61 52.1653 195.826 53.424 197.362 54.32C198.898 55.1733 200.626 55.6 202.546 55.6ZM260.501 45.104C260.501 45.6587 260.458 46.448 260.373 47.472H233.557C234.026 49.9893 235.242 51.9947 237.205 53.488C239.21 54.9387 241.685 55.664 244.629 55.664C248.384 55.664 251.477 54.4267 253.909 51.952L258.197 56.88C256.661 58.7147 254.72 60.1013 252.373 61.04C250.026 61.9787 247.381 62.448 244.437 62.448C240.682 62.448 237.376 61.7013 234.517 60.208C231.658 58.7147 229.44 56.6453 227.861 54C226.325 51.312 225.557 48.2827 225.557 44.912C225.557 41.584 226.304 38.5973 227.797 35.952C229.333 33.264 231.445 31.1733 234.133 29.68C236.821 28.1867 239.85 27.44 243.221 27.44C246.549 27.44 249.514 28.1867 252.117 29.68C254.762 31.1307 256.81 33.2 258.261 35.888C259.754 38.5333 260.501 41.6053 260.501 45.104ZM243.221 33.84C240.661 33.84 238.485 34.608 236.693 36.144C234.944 37.6373 233.877 39.6427 233.493 42.16H252.885C252.544 39.6853 251.498 37.68 249.749 36.144C248 34.608 245.824 33.84 243.221 33.84Z" fill="white"/>
</svg>
