<svg width="206" height="63" viewBox="0 0 206 63" fill="none" xmlns="http://www.w3.org/2000/svg">
<circle cx="30.9392" cy="32.0608" r="30.9392" fill="white"/>
<circle cx="30.5475" cy="31.6692" r="25.8479" fill="black"/>
<circle cx="30.9392" cy="31.2776" r="6.65779" fill="white"/>
<path d="M78.1766 48.6893C76.0043 48.6893 73.8822 48.4052 71.8102 47.8371C69.7382 47.269 68.0839 46.5505 66.8474 45.6815L69.2536 40.9193C70.4567 41.7213 71.8937 42.373 73.5647 42.8743C75.2691 43.3422 76.9401 43.5761 78.5776 43.5761C82.3206 43.5761 84.1921 42.5902 84.1921 40.6185C84.1921 39.6827 83.7075 39.0311 82.7384 38.6635C81.8026 38.2958 80.282 37.9449 78.1766 37.6107C75.9709 37.2765 74.1663 36.8922 72.7626 36.4578C71.3924 36.0233 70.1893 35.2714 69.1533 34.2019C68.1508 33.0991 67.6495 31.5785 67.6495 29.6402C67.6495 27.1003 68.7022 25.0784 70.8076 23.5745C72.9465 22.0372 75.8205 21.2686 79.4298 21.2686C81.2679 21.2686 83.106 21.4858 84.9441 21.9203C86.7821 22.3213 88.286 22.8727 89.4557 23.5745L87.0495 28.3368C84.777 27 82.2204 26.3316 79.3797 26.3316C77.5416 26.3316 76.138 26.6157 75.1689 27.1838C74.2331 27.7186 73.7652 28.4371 73.7652 29.3394C73.7652 30.342 74.2665 31.0605 75.2691 31.495C76.3051 31.896 77.8925 32.2803 80.0314 32.6479C82.1702 32.9821 83.9248 33.3665 85.295 33.8009C86.6652 34.2354 87.8349 34.9706 88.804 36.0066C89.8066 37.0426 90.3079 38.5131 90.3079 40.418C90.3079 42.9244 89.2218 44.9296 87.0495 46.4335C84.8772 47.9374 81.9196 48.6893 78.1766 48.6893ZM110.893 21.2686C114.269 21.2686 116.976 22.2545 119.014 24.2262C121.053 26.198 122.072 29.1222 122.072 32.9988V48.3384H115.806V33.8009C115.806 31.4615 115.255 29.707 114.152 28.5373C113.049 27.3342 111.478 26.7327 109.44 26.7327C107.134 26.7327 105.312 27.4345 103.976 28.8381C102.639 30.2083 101.97 32.1968 101.97 34.8035V48.3384H95.7042V21.5694H101.67V25.0283C102.706 23.7918 104.009 22.856 105.58 22.221C107.15 21.5861 108.922 21.2686 110.893 21.2686ZM130.021 21.5694H136.287V48.3384H130.021V21.5694ZM133.179 17.158C132.043 17.158 131.091 16.8071 130.322 16.1053C129.553 15.37 129.169 14.4677 129.169 13.3983C129.169 12.3289 129.553 11.4432 130.322 10.7414C131.091 10.0062 132.043 9.6386 133.179 9.6386C134.316 9.6386 135.268 9.9895 136.037 10.6913C136.805 11.3597 137.19 12.2119 137.19 13.2479C137.19 14.3507 136.805 15.2865 136.037 16.0551C135.302 16.7904 134.349 17.158 133.179 17.158ZM159.35 21.2686C161.957 21.2686 164.279 21.8367 166.318 22.973C168.39 24.1092 170.011 25.7134 171.181 27.7854C172.35 29.8574 172.935 32.2469 172.935 34.9539C172.935 37.6609 172.35 40.0671 171.181 42.1725C170.011 44.2445 168.39 45.8486 166.318 46.9849C164.279 48.1212 161.957 48.6893 159.35 48.6893C155.741 48.6893 152.883 47.4862 150.778 45.08V58.0635H144.512V21.5694H150.477V25.0784C151.513 23.8085 152.783 22.856 154.287 22.221C155.824 21.5861 157.512 21.2686 159.35 21.2686ZM158.648 43.3255C160.954 43.3255 162.842 42.5568 164.313 41.0195C165.817 39.4822 166.569 37.4603 166.569 34.9539C166.569 32.4474 165.817 30.4255 164.313 28.8882C162.842 27.3509 160.954 26.5823 158.648 26.5823C157.144 26.5823 155.791 26.9332 154.588 27.635C153.385 28.3034 152.432 29.2726 151.73 30.5425C151.029 31.8124 150.678 33.2829 150.678 34.9539C150.678 36.6249 151.029 38.0953 151.73 39.3653C152.432 40.6352 153.385 41.6211 154.588 42.3229C155.791 42.9913 157.144 43.3255 158.648 43.3255ZM204.043 35.1043C204.043 35.5387 204.009 36.157 203.942 36.9591H182.938C183.306 38.9308 184.258 40.5015 185.796 41.6712C187.366 42.8075 189.305 43.3756 191.611 43.3756C194.551 43.3756 196.974 42.4064 198.879 40.4681L202.238 44.3281C201.035 45.7651 199.514 46.8512 197.676 47.5865C195.838 48.3217 193.766 48.6893 191.46 48.6893C188.519 48.6893 185.929 48.1045 183.69 46.9348C181.451 45.7651 179.713 44.1443 178.477 42.0722C177.274 39.9668 176.672 37.594 176.672 34.9539C176.672 32.3472 177.257 30.0078 178.427 27.9358C179.63 25.8304 181.284 24.1928 183.389 23.0231C185.495 21.8534 187.868 21.2686 190.508 21.2686C193.114 21.2686 195.437 21.8534 197.476 23.0231C199.548 24.1594 201.152 25.7802 202.288 27.8857C203.458 29.9577 204.043 32.3639 204.043 35.1043ZM190.508 26.2815C188.503 26.2815 186.798 26.8831 185.395 28.0862C184.024 29.2559 183.189 30.8266 182.888 32.7983H198.077C197.81 30.86 196.991 29.2893 195.621 28.0862C194.251 26.8831 192.546 26.2815 190.508 26.2815Z" fill="white"/>
</svg>
